<?xml version="1.0" encoding="UTF-8" standalone="no"?>
<!-- Created with Inkscape (http://www.inkscape.org/) -->

<svg
   xmlns:dc="http://purl.org/dc/elements/1.1/"
   xmlns:cc="http://creativecommons.org/ns#"
   xmlns:rdf="http://www.w3.org/1999/02/22-rdf-syntax-ns#"
   xmlns:svg="http://www.w3.org/2000/svg"
   xmlns="http://www.w3.org/2000/svg"
   xmlns:sodipodi="http://sodipodi.sourceforge.net/DTD/sodipodi-0.dtd"
   xmlns:inkscape="http://www.inkscape.org/namespaces/inkscape"
   width="100mm"
   height="100mm"
   viewBox="0 0 100 100"
   version="1.1"
   id="svg8"
   inkscape:version="0.92.3 (2405546, 2018-03-11)"
   sodipodi:docname="notes_icon4e.svg">
  <defs
     id="defs2" />
  <sodipodi:namedview
     id="base"
     pagecolor="#ffffff"
     bordercolor="#666666"
     borderopacity="1.0"
     inkscape:pageopacity="0.0"
     inkscape:pageshadow="2"
     inkscape:zoom="2"
     inkscape:cx="159.68511"
     inkscape:cy="210.20384"
     inkscape:document-units="mm"
     inkscape:current-layer="layer1"
     showgrid="false"
     inkscape:window-width="1896"
     inkscape:window-height="1181"
     inkscape:window-x="24"
     inkscape:window-y="0"
     inkscape:window-maximized="1" />
  <metadata
     id="metadata5">
    <rdf:RDF>
      <cc:Work
         rdf:about="">
        <dc:format>image/svg+xml</dc:format>
        <dc:type
           rdf:resource="http://purl.org/dc/dcmitype/StillImage" />
        <dc:title />
      </cc:Work>
    </rdf:RDF>
  </metadata>
  <g
     inkscape:label="Layer 1"
     inkscape:groupmode="layer"
     id="layer1"
     transform="translate(0,-197)"
     style="display:inline">
    <path
       style="fill:#ffffff;stroke-width:0.34109229"
       d="m 17.42426,196.99883 c -9.7381774,-0.29954 -18.20781441,8.83487 -17.37206641,18.50395 0.01495,21.6733 -0.02994,43.34735 0.02252,65.02017 0.207979,9.53001 9.33605501,17.37626 18.76375841,16.47597 21.579186,-0.0149 43.159127,0.0299 64.737842,-0.0225 9.530136,-0.20807 17.375686,-9.33671 16.475456,-18.76427 0,-20.52593 0,-41.05187 0,-61.57781 -2.19211,2.23139 -4.38422,4.46278 -6.57634,6.69417 -6.778569,-6.4613 -13.557139,-12.92257 -20.335709,-19.38385 2.274626,-2.31528 4.549249,-4.63055 6.823874,-6.94583 -20.846444,0 -41.69289,0 -62.539335,0 z m 48.307127,14.35416 c 6.599769,6.59977 13.199538,13.19954 19.799313,19.79931 -11.410333,11.41033 -22.820662,22.82066 -34.23099,34.23099 -9.969116,3.35587 -19.934742,6.72208 -29.896882,10.0986 3.37561,-9.96253 6.743219,-19.92891 10.097575,-29.89791 11.410328,-11.41033 22.820656,-22.82066 34.230984,-34.23099 z m -31.704523,36.77192 c -2.477185,5.7901 -4.949627,11.58224 -7.434688,17.36896 1.571998,1.57183 3.143993,3.14365 4.715991,4.71548 5.786371,-2.48533 11.578484,-4.95724 17.368448,-7.43417 -4.88325,-4.88343 -9.766501,-9.76685 -14.649751,-14.65027 z"
       id="rect3717"
       inkscape:connector-curvature="0" />
    <path
       inkscape:connector-curvature="0"
       style="display:inline;opacity:0.25;fill:#000000;stroke-width:0.34109232"
       d="m 41.434162,255.53221 -12.401825,12.40131 c 0.758651,0.75857 1.517177,1.51726 2.27583,2.27583 5.786371,-2.48533 11.578484,-4.95724 17.368448,-7.43417 -2.414193,-2.41428 -4.828257,-4.82869 -7.242453,-7.24297 z"
       id="rect3717-7" />
  </g>
</svg>
